<svg width="150" height="72" fill="none" xmlns="http://www.w3.org/2000/svg"><path d="M46.26 47.07h9.5v3.1h-4.52V72h-4.98V47.07ZM61.4 62.64l.85-12.46h.29l.85 12.46h-2ZM55.88 72h4.88l.46-6.62h2.35l.46 6.62h4.88l-2.6-24.93h-7.83L55.88 72ZM76.05 63.28v4.7c0 .63.49.81.77.81a.8.8 0 0 0 .8-.82v-5.8c0-.77-.14-1.63-2-1.63h-2.03V57.8h2.1c1.42 0 1.93-.33 1.93-1.86V51a.8.8 0 0 0-.8-.82c-.28 0-.77.16-.77.82v4.06h-4.99v-3.53c0-1.74.2-4.46 3.7-4.46h4.13c3.49 0 3.71 2.72 3.71 4.46v3.98c0 2.72-1.9 3.45-3.39 3.4v.24c3.35-.08 3.4 2.5 3.4 3.37v5.03c0 1.75-.23 4.45-3.72 4.45h-4.13c-3.5 0-3.7-2.7-3.7-4.45v-4.27h4.99ZM85.87 47.07h11.55V72h-4.99V50.18h-1.57V72h-4.99V47.07ZM105.67 60.78v-10.6h.66c.53 0 .91.45.91 1.25v8.1c0 .8-.38 1.25-.91 1.25h-.66ZM100.7 72h4.98v-8.48h2.86c3.47 0 3.7-2.7 3.7-4.45v-7.54c0-1.74-.23-4.46-3.7-4.46h-7.84V72ZM122.06 67.97a.8.8 0 0 1-.8.82.76.76 0 0 1-.78-.82V51c0-.66.5-.82.78-.82.47 0 .8.39.8.82v16.97Zm-6.56-.42c0 1.75.22 4.45 3.7 4.45h4.14c3.48 0 3.7-2.7 3.7-4.45V51.53c0-1.74-.22-4.46-3.7-4.46h-4.14c-3.48 0-3.7 2.72-3.7 4.46v16.02ZM143.26 47.07h6.5V72h-4.98V56.37h-.19L142.02 72h-3.99l-2.55-15.63h-.18V72h-4.99V47.07h6.48l3.25 17.53 3.22-17.53ZM39.8 13C38.27 6.3 34.45.87 33.92 0a45.27 45.27 0 0 0-5.44 11.36 41.19 41.19 0 0 0-1.36 16.39 45.46 45.46 0 0 0 2.78 10.52 37.27 37.27 0 0 0 4.04 7.25c1.67-2.16 5.5-8.62 6.69-17.04.66-4.7.7-8.8-.83-15.49Zm-5.88 30.85a18.17 18.17 0 0 1-2.03-8.26c-.03-4 1.58-7.46 2.05-8.17.42.71 1.8 3.72 1.97 7.82.11 4-1.22 7.18-2 8.6Zm5.43-19.52a36.6 36.6 0 0 1-.75 6.87c.14-2.78-.2-6.68-.83-9.75-.64-3.04-2.44-8.15-3.88-10.5-1.33 2.25-2.97 6.66-3.83 10.48a49.17 49.17 0 0 0-.88 9.85c-.23-1.16-.8-5.35-.64-9.54.13-3.45.94-7.03 1.38-8.66 1.7-5.46 3.61-8.95 3.97-9.5.36.55 2.77 4.86 4.02 9.37a41.65 41.65 0 0 1 1.44 11.38Z" fill="#0079C2"/><path d="M36.5 47.07H24.9v7.79l.03-.02a7 7 0 1 1 9.9 9.89c0 .02-.02.02-.03.04-.02 0-.03.02-.04.04a13.97 13.97 0 0 1-9.86 4.04 13.98 13.98 0 1 1 0-27.95V22.2a24.89 24.89 0 1 0 18.18 41.9V47.07H36.5Z" fill="#0079C2"/></svg>