<svg width="79" height="97" fill="none" xmlns="http://www.w3.org/2000/svg"><path fill-rule="evenodd" clip-rule="evenodd" d="M18.93 87.78c1.56 0 2.83 1.43 2.83 3.19 0 1.75-1.27 3.18-2.83 3.18-1.57 0-2.84-1.43-2.84-3.18 0-1.76 1.27-3.19 2.84-3.19Zm0-2.42a5.63 5.63 0 0 1 5.65 5.6c0 3.1-2.53 5.62-5.65 5.62a5.63 5.63 0 0 1-5.65-5.61c0-3.1 2.53-5.61 5.65-5.61Zm13.21 2.42c.97 0 1.88.44 2.4 1.27l1.85-1.78a5.66 5.66 0 0 0-9.9 3.7 5.66 5.66 0 0 0 9.97 3.62l-1.93-1.66a2.8 2.8 0 0 1-2.39 1.22c-1.56 0-2.83-1.43-2.83-3.18 0-1.76 1.27-3.19 2.83-3.19Zm18.68 3.92h8.12a5.53 5.53 0 0 0-5.4-6.35 5.53 5.53 0 0 0-5.45 5.62c0 3.1 2.44 5.6 5.45 5.6 1.71 0 3.69-.29 4.69-1.56l-1.25-1.8c-.62.9-2.26 1.15-3.32 1.15-1.38 0-2.55-1.14-2.84-2.66Zm.07-1.74c.36-1.38 1.47-2.38 2.77-2.38s2.41 1 2.78 2.38H50.9ZM38.1 85.6h8.74v2.4h-3.02v8.3h-2.7v-8.3H38.1v-2.4Zm25.35 5.19-3.67-5.19h3.24l2.2 3.32 2.2-3.32h3.25L67 90.8l3.84 5.52H67.7l-2.48-3.58-2.47 3.58H59.6l3.84-5.52Zm1.77-1.37v.02h.02l-.02-.02ZM6.72 84.2a2.12 2.12 0 0 1 0 4.24H3.13V84.2H6.7ZM.16 81.69h7.15a4.64 4.64 0 0 1 0 9.28H3.14v5.35H.17V81.69ZM9.05 9.05H32.7L23.65 0H0v23.65l9.05 9.05V9.05Zm28.54 0h23.65V32.7l9.05-9.05V0H46.63L37.6 9.05Zm23.65 28.54v23.65H37.59l9.04 9.05H70.3V46.63l-9.05-9.04ZM32.7 61.24H9.05V37.59L0 46.63V70.3h23.65l9.05-9.05Z" fill="#000"/><path d="M72.81.38h2.26v.5h-.88v2.7h-.5V.88h-.88v-.5Zm4.3 2.38L78.17.38h.54v3.2h-.49v-2.1l-.94 2.1h-.35l-.94-2.1v2.1h-.49V.38h.55l1.06 2.38Z" fill="#000"/></svg>