<svg width="80" height="80" fill="none" xmlns="http://www.w3.org/2000/svg"><circle cx="40" cy="40" r="40" fill="#E9E9EC"/><path fill-rule="evenodd" clip-rule="evenodd" d="M26.17 51.75h6.9c.45 0 .82.36.82.82v6.9c0 .45-.37.82-.82.82h-6.9a.82.82 0 0 1-.82-.82v-6.9c0-.46.36-.82.82-.82ZM53.6 42.1H40.96a.82.82 0 1 1 0-1.65H53.6a.82.82 0 1 1 0 1.65Zm-19.2-16.73-6.46 6.46a.82.82 0 0 1-1.3-.15l-1.96-3.39a.82.82 0 0 1 .3-1.12.82.82 0 0 1 1.12.3l1.42 2.47 5.71-5.72a.82.82 0 0 1 1.16 0c.32.32.32.84 0 1.16ZM30.18 15h-9.37a.82.82 0 0 0-.82.82v47.85c0 .46.37.83.82.83H58.2c.45 0 .82-.37.82-.83V15.82a.82.82 0 0 0-.82-.82h-9.37v4.48c0 .45-.37.82-.82.82H31a.82.82 0 0 1-.82-.82V15Zm9.95 41.02c0-.46.36-.82.82-.82H53.6a.82.82 0 1 1 0 1.64H40.96a.82.82 0 0 1-.82-.82ZM34.4 38.64l-6.45 6.45a.82.82 0 0 1-1.3-.15l-1.96-3.38a.82.82 0 0 1 .3-1.13.82.82 0 0 1 1.12.3l1.42 2.47 5.71-5.71a.82.82 0 0 1 1.16 0c.32.32.32.84 0 1.16v-.01Zm6.56-9.79a.82.82 0 1 1 0-1.64H53.6a.82.82 0 1 1 0 1.64H40.96Z" fill="#0B7572"/><path fill-rule="evenodd" clip-rule="evenodd" d="M48 15.03H31.02v4.45h17v-4.45Z" fill="#0B7572"/></svg>