<svg width="80" height="80" fill="none" xmlns="http://www.w3.org/2000/svg"><circle cx="40" cy="40" r="40" fill="#E9E9EC"/><path fill-rule="evenodd" clip-rule="evenodd" d="M27.54 27.54a17.58 17.58 0 0 1 24.92 0 17.58 17.58 0 0 1 0 24.92 17.58 17.58 0 0 1-24.92 0 17.58 17.58 0 0 1 0-24.92ZM62 40c0-6.08-2.47-11.58-6.45-15.55A21.93 21.93 0 0 0 40 18a21.93 21.93 0 0 0-15.55 6.45A21.93 21.93 0 0 0 18 40c0 6.08 2.47 11.58 6.45 15.55A21.93 21.93 0 0 0 40 62c6.08 0 11.58-2.47 15.55-6.45A21.93 21.93 0 0 0 62 40Z" fill="#0B7572"/><path fill-rule="evenodd" clip-rule="evenodd" d="M34.91 34.99c0-1.56.55-2.83 1.66-3.79a5.75 5.75 0 0 1 3.3-1.2v-1.04h1.29V30c1.27.12 2.29.5 3.03 1.11.97.8 1.54 1.9 1.73 3.29l-2.27.34a3.7 3.7 0 0 0-.8-1.98c-.4-.45-.98-.76-1.69-.9v6.32c1.1.27 1.84.5 2.2.65.67.3 1.23.66 1.66 1.1.43.42.76.94 1 1.53.23.6.35 1.24.35 1.92a5.27 5.27 0 0 1-5.2 5.44v2.22h-1.3v-2.19a8.08 8.08 0 0 1-2.68-.74 4.68 4.68 0 0 1-1.78-1.7c-.5-.8-.79-1.76-.87-2.9l2.21-.4c.17 1.17.47 2.04.9 2.59a3.22 3.22 0 0 0 2.22 1.3v-6.98A9.33 9.33 0 0 1 37.1 39c-.7-.4-1.23-.93-1.61-1.63a4.8 4.8 0 0 1-.57-2.35v-.02ZM56.16 40c0-4.46-1.8-8.5-4.74-11.42a16.1 16.1 0 0 0-22.84 0 16.1 16.1 0 0 0 0 22.84 16.1 16.1 0 0 0 22.84 0A16.1 16.1 0 0 0 56.16 40Z" fill="#0B7572"/><path fill-rule="evenodd" clip-rule="evenodd" d="M39.86 37.9v-6.06c-.85.12-1.53.47-2.02 1.02s-.74 1.2-.74 1.97c0 .74.21 1.37.63 1.87.42.5 1.13.91 2.12 1.2h.01ZM44.1 43.53c0-.79-.2-1.43-.6-1.91a5.12 5.12 0 0 0-2.36-1.3V47c.85-.1 1.56-.48 2.12-1.11.56-.64.83-1.42.83-2.36Z" fill="#0B7572"/></svg>