<svg width="80" height="80" fill="none" xmlns="http://www.w3.org/2000/svg"><circle cx="40" cy="40" r="40" fill="#E9E9EC"/><path fill-rule="evenodd" clip-rule="evenodd" d="M60.22 27.84H19.79a1.8 1.8 0 0 0-1.79 1.8V58.5a1.8 1.8 0 0 0 1.79 1.79h40.43c.49 0 .94-.2 1.26-.53.32-.32.52-.77.52-1.26V29.63a1.8 1.8 0 0 0-1.78-1.79ZM40.85 46.62v9.27a.84.84 0 0 1-1.68 0v-9.27a2.3 2.3 0 0 1 .83-4.45 2.3 2.3 0 0 1 .85 4.45Z" fill="#0B7572"/><path fill-rule="evenodd" clip-rule="evenodd" d="M57.95 31.4a17.9 17.9 0 0 0-5.25-12.14 17.9 17.9 0 0 0-25.39 0 17.9 17.9 0 0 0-5.25 12.14h35.89Zm-3.8-3.3a14.5 14.5 0 0 0-3.79-6.5A14.6 14.6 0 0 0 40 17.3c-3.9 0-7.6 1.55-10.36 4.3a14.55 14.55 0 0 0-3.77 6.5h28.27Z" fill="#0B7572"/></svg>